<?xml version="1.0" standalone="no"?>
<!DOCTYPE svg PUBLIC "-//W3C//DTD SVG 20010904//EN"
 "http://www.w3.org/TR/2001/REC-SVG-20010904/DTD/svg10.dtd">
<svg version="1.0" xmlns="http://www.w3.org/2000/svg"
 width="204.000000pt" height="192.000000pt" viewBox="0 0 204.000000 192.000000"
 preserveAspectRatio="xMidYMid meet">

<g transform="translate(0.000000,192.000000) scale(0.100000,-0.100000)"
fill="#000000" stroke="none">
<path d="M485 1888 c-138 -92 -265 -247 -355 -433 -132 -273 -158 -479 -94
-742 62 -257 211 -494 408 -649 l80 -64 572 0 572 0 81 55 c92 61 240 184 259
215 18 29 7 25 -34 -12 -19 -18 -48 -40 -64 -49 -15 -8 -40 -23 -54 -32 -14
-9 -31 -17 -38 -17 -7 0 -26 -7 -42 -15 -55 -29 -192 -65 -286 -75 -135 -15
-303 11 -460 72 -67 25 -200 98 -200 110 0 4 -5 8 -11 8 -30 0 -196 201 -183
221 3 5 1 9 -4 9 -15 0 -74 149 -76 191 0 20 -4 35 -8 32 -12 -7 -13 94 -2
127 5 12 8 12 20 -4 13 -18 14 -18 14 -2 0 10 9 20 20 23 11 3 20 9 20 13 0 4
24 6 53 4 28 -1 42 0 29 2 -25 6 -25 22 1 38 12 8 21 6 36 -8 19 -17 20 -17
30 3 6 11 11 26 11 34 0 8 7 17 15 21 11 4 15 -1 15 -19 0 -14 5 -25 10 -25 7
0 10 28 9 73 -1 71 21 190 47 252 7 18 10 36 6 40 -4 5 -2 5 4 2 6 -4 21 15
35 46 25 53 139 177 164 177 25 0 124 -101 181 -185 32 -47 60 -85 63 -85 3 0
47 60 96 132 50 73 111 163 138 202 l47 69 -20 22 c-11 12 -20 31 -20 43 0 12
-4 22 -10 22 -5 0 -7 -7 -4 -15 8 -21 -2 -19 -27 6 -17 17 -19 23 -8 31 11 7
9 8 -4 4 -24 -8 -83 40 -79 63 2 11 0 12 -5 4 -6 -9 -21 -4 -56 19 -34 22 -44
34 -35 39 9 6 8 9 -5 15 -9 3 -14 11 -11 16 4 6 -2 5 -14 -1 -26 -14 -54 -15
-32 -2 8 6 -131 10 -366 11 l-380 1 -49 -33z m835 2 c0 -5 -4 -10 -10 -10 -5
0 -10 5 -10 10 0 6 5 10 10 10 6 0 10 -4 10 -10z m-516 -885 c-4 -8 -10 -12
-15 -9 -14 8 -10 24 6 24 9 0 12 -6 9 -15z m-257 -77 c-3 -7 -5 -2 -5 12 0 14
2 19 5 13 2 -7 2 -19 0 -25z"/>
<path d="M1685 1892 c0 -25 3 -27 37 -27 29 0 34 2 26 13 -9 10 -13 10 -19 1
-6 -10 -11 -10 -23 0 -9 7 -14 17 -11 21 3 5 2 11 -3 14 -4 2 -8 -8 -7 -22z"/>
<path d="M1770 1851 c0 -7 -5 -9 -12 -5 -7 5 -8 3 -3 -5 5 -9 10 -10 18 -2 6
6 8 14 4 18 -4 3 -7 1 -7 -6z"/>
<path d="M1878 1762 c9 -10 19 -17 21 -16 6 5 -20 34 -30 34 -5 0 -1 -8 9 -18z"/>
<path d="M1925 1731 c4 -7 3 -16 -4 -21 -9 -5 -8 -10 4 -20 13 -11 15 -10 9 4
-8 21 5 21 22 -1 7 -10 15 -15 18 -12 3 3 -8 19 -26 35 -17 16 -28 23 -23 15z"/>
<path d="M1848 1713 c7 -3 16 -2 19 1 4 3 -2 6 -13 5 -11 0 -14 -3 -6 -6z"/>
<path d="M1586 1691 c-3 -5 1 -12 10 -15 22 -8 25 -4 9 11 -8 7 -16 9 -19 4z"/>
<path d="M1990 1665 c0 -8 4 -15 10 -15 5 0 7 7 4 15 -4 8 -8 15 -10 15 -2 0
-4 -7 -4 -15z"/>
<path d="M1948 1653 c7 -3 16 -2 19 1 4 3 -2 6 -13 5 -11 0 -14 -3 -6 -6z"/>
<path d="M834 852 c3 -58 10 -82 20 -71 2 2 -2 33 -9 69 l-14 65 3 -63z"/>
<path d="M793 865 c6 -7 15 -11 20 -8 13 8 7 19 -13 20 -16 1 -17 -1 -7 -12z"/>
<path d="M856 745 c-9 -26 -7 -32 5 -12 6 10 9 21 6 23 -2 3 -7 -2 -11 -11z"/>
<path d="M1292 635 c-24 -46 -61 -95 -109 -143 -65 -65 -88 -93 -65 -78 5 3
23 -4 40 -15 26 -15 51 -19 127 -19 51 0 96 4 99 9 3 5 18 12 33 15 43 11 125
69 196 139 60 59 123 144 114 153 -2 2 -93 5 -201 7 l-198 2 -36 -70z"/>
<path d="M911 630 c14 -31 19 -36 19 -24 0 6 -7 19 -16 30 -14 18 -14 18 -3
-6z"/>
<path d="M1795 596 c10 -14 19 -26 22 -26 7 0 -17 39 -28 46 -6 3 -3 -5 6 -20z"/>
</g>
</svg>
