<?xml version="1.0" standalone="no"?>
<!DOCTYPE svg PUBLIC "-//W3C//DTD SVG 20010904//EN"
 "http://www.w3.org/TR/2001/REC-SVG-20010904/DTD/svg10.dtd">
<svg version="1.0" xmlns="http://www.w3.org/2000/svg"
 width="626.000000pt" height="626.000000pt" viewBox="0 0 626.000000 626.000000"
 preserveAspectRatio="xMidYMid meet">

<g transform="translate(0.000000,626.000000) scale(0.100000,-0.100000)"
fill="#000000" stroke="none">
<path d="M1960 6070 c0 -47 4 -80 10 -80 6 0 10 6 10 14 0 26 23 30 41 7 10
-12 26 -21 35 -19 14 3 13 8 -9 34 -26 31 -26 31 -7 49 39 35 8 42 -32 7 -16
-13 -18 -13 -24 2 -3 9 -3 27 0 41 5 18 2 25 -9 25 -12 0 -15 -15 -15 -80z"/>
<path d="M2790 6124 c0 -21 -4 -24 -20 -19 -48 15 -85 -46 -55 -91 12 -19 23
-24 55 -22 44 1 43 -2 44 100 1 40 -3 58 -11 58 -7 0 -13 -12 -13 -26z m-2
-70 c4 -29 -23 -51 -43 -34 -16 13 -20 42 -8 54 14 14 48 1 51 -20z"/>
<path d="M230 6125 c0 -9 8 -14 23 -12 20 2 22 -2 25 -60 4 -80 22 -82 22 -3
0 57 1 60 25 60 16 0 25 6 25 15 0 12 -13 15 -60 15 -46 0 -60 -3 -60 -15z"/>
<path d="M1562 6068 c3 -68 5 -73 27 -76 43 -6 90 8 96 29 4 11 2 26 -4 33 -5
6 -8 22 -4 34 9 35 -13 52 -69 52 l-50 0 4 -72z m86 30 c3 -14 -3 -18 -27 -18
-29 0 -41 17 -24 34 13 13 48 1 51 -16z m-4 -44 c30 -12 18 -34 -19 -34 -22 0
-35 5 -35 13 0 26 21 34 54 21z"/>
<path d="M1423 6123 c4 -3 2 -13 -5 -20 -8 -11 -9 -16 -1 -21 7 -4 13 -25 15
-47 3 -35 6 -40 31 -43 31 -4 37 13 7 21 -24 6 -28 55 -5 63 8 4 15 10 15 15
0 5 -7 9 -15 9 -8 0 -15 7 -15 15 0 8 -7 15 -17 15 -9 0 -13 -3 -10 -7z"/>
<path d="M406 6101 c-3 -5 -14 -7 -24 -5 -15 4 -17 -2 -16 -47 0 -31 5 -54 12
-57 8 -2 12 9 12 32 0 25 6 40 20 48 11 7 20 18 20 25 0 15 -16 17 -24 4z"/>
<path d="M463 6103 c-19 -7 -16 -25 5 -22 50 5 60 -15 12 -25 -63 -12 -46 -66
21 -63 39 1 39 1 39 43 0 59 -31 86 -77 67z m47 -78 c0 -8 -9 -15 -20 -15 -11
0 -20 7 -20 15 0 8 9 15 20 15 11 0 20 -7 20 -15z"/>
<path d="M600 6103 c-23 -4 -25 -8 -24 -55 0 -30 5 -53 12 -56 8 -2 12 8 12
26 0 43 9 62 31 62 16 0 19 -8 19 -45 0 -33 4 -45 15 -45 19 0 21 90 3 108
-12 12 -20 13 -68 5z"/>
<path d="M716 6097 c-24 -18 -17 -50 13 -57 14 -3 27 -12 29 -19 4 -11 -3 -13
-27 -8 -24 5 -31 3 -29 -6 6 -17 56 -21 74 -6 23 19 16 40 -16 52 -34 13 -34
33 -1 29 15 -1 21 3 19 10 -6 18 -40 21 -62 5z"/>
<path d="M843 6103 c-17 -3 -23 -12 -24 -34 -2 -97 -1 -113 9 -117 7 -2 12 7
12 22 0 23 3 25 29 20 22 -5 32 -1 45 17 21 31 20 55 -4 79 -20 20 -25 21 -67
13z m55 -49 c4 -30 -20 -47 -43 -31 -12 10 -15 20 -10 36 9 29 49 25 53 -5z"/>
<path d="M963 6103 c-24 -9 -13 -23 18 -23 37 0 35 -23 -2 -29 -59 -8 -40 -61
21 -58 l40 1 0 48 c0 37 -4 50 -19 58 -21 11 -38 12 -58 3z m52 -72 c3 -5 1
-13 -5 -16 -15 -9 -43 3 -35 15 8 13 32 13 40 1z"/>
<path d="M1079 6103 c0 -2 0 -23 0 -48 0 -63 0 -65 11 -65 6 0 10 16 10 35 0
24 6 39 20 47 29 18 25 33 -10 33 -16 0 -30 -1 -31 -2z"/>
<path d="M1170 6090 c-48 -48 0 -119 64 -94 9 3 13 10 10 15 -3 5 -10 7 -15 4
-12 -8 -49 4 -49 16 0 5 18 9 40 9 33 0 40 3 40 19 0 20 -35 51 -57 51 -7 0
-22 -9 -33 -20z m60 -20 c0 -8 -24 -20 -41 -20 -14 0 -11 28 4 33 15 5 37 -2
37 -13z"/>
<path d="M1289 6106 c0 0 -1 -25 -2 -55 -2 -67 20 -84 25 -19 2 35 7 44 25 46
19 3 22 -2 25 -39 2 -23 9 -44 16 -47 17 -5 17 94 0 104 -10 7 -87 15 -89 10z"/>
<path d="M1720 6100 c-12 -8 -12 -10 3 -16 10 -3 21 -4 24 0 3 3 13 0 21 -6
12 -10 9 -14 -19 -23 -26 -9 -34 -17 -34 -36 0 -22 4 -24 48 -26 l47 -2 0 37
c0 65 -45 101 -90 72z m58 -72 c-7 -19 -38 -22 -38 -4 0 10 9 16 21 16 12 0
19 -5 17 -12z"/>
<path d="M1850 6090 c-49 -49 10 -128 69 -91 7 5 10 14 6 20 -5 9 -10 9 -21 0
-11 -9 -18 -8 -29 1 -24 20 -15 55 15 57 14 0 29 1 34 2 5 1 3 8 -4 16 -17 21
-46 19 -70 -5z"/>
<path d="M2091 6091 c-12 -12 -21 -29 -21 -39 0 -29 35 -55 65 -50 14 3 25 2
25 -2 0 -14 -28 -30 -48 -28 -11 2 -22 -1 -24 -7 -2 -5 13 -11 33 -13 53 -4
69 16 69 89 0 49 -3 59 -17 59 -10 0 -28 3 -40 6 -14 4 -28 -1 -42 -15z m67
-37 c4 -27 -26 -40 -46 -20 -21 20 -8 48 20 44 14 -2 24 -11 26 -24z"/>
<path d="M2224 6085 c-8 -33 0 -88 14 -93 8 -2 12 10 12 38 0 33 4 43 20 47
31 8 24 30 -10 30 -23 0 -32 -6 -36 -22z"/>
<path d="M2322 6094 c-27 -19 -29 -64 -4 -87 58 -53 127 27 75 86 -20 21 -42
22 -71 1z m64 -36 c7 -24 -19 -50 -42 -41 -14 5 -19 44 -7 56 14 15 42 6 49
-15z"/>
<path d="M2437 6103 c-10 -9 -8 -58 3 -87 8 -23 14 -25 55 -24 l45 2 0 53 c0
40 -4 53 -15 53 -11 0 -15 -11 -15 -41 0 -36 -2 -40 -22 -37 -19 2 -24 10 -26
46 -3 40 -10 50 -25 35z"/>
<path d="M2576 6100 c-7 -22 1 -104 12 -107 8 -3 12 6 12 25 0 43 9 62 31 62
16 0 19 -8 19 -45 0 -33 4 -45 15 -45 19 0 21 92 2 108 -12 11 -87 12 -91 2z"/>
<path d="M3398 5953 c7 -3 16 -2 19 1 4 3 -2 6 -13 5 -11 0 -14 -3 -6 -6z"/>
<path d="M3313 5940 c-12 -5 -26 -18 -32 -29 -8 -13 -11 -251 -11 -746 0 -800
-2 -772 61 -794 18 -6 203 -32 411 -58 208 -26 378 -50 378 -53 0 -3 -12 -11
-27 -18 -49 -21 -93 -47 -93 -54 0 -5 12 -8 27 -8 36 0 21 -13 -20 -17 -17 -1
-41 -5 -52 -7 -11 -3 -27 -5 -37 -5 -28 -2 -10 -41 19 -41 13 0 22 4 19 8 -3
5 19 10 49 11 29 1 56 -3 60 -8 3 -6 12 -8 20 -5 8 4 13 9 11 13 -3 4 3 7 12
7 9 1 24 3 32 5 11 3 16 -11 22 -60 10 -75 7 -88 -24 -101 -19 -7 -13 -9 27
-9 28 -1 95 -4 149 -8 l99 -6 -7 69 c-4 38 -11 73 -17 78 -5 6 -9 20 -9 32 0
13 -4 26 -10 29 -5 3 -10 -1 -10 -9 0 -17 -25 -22 -34 -8 -3 5 8 24 23 43 21
25 26 39 20 54 -6 15 -8 16 -8 4 -1 -13 -9 -16 -33 -13 -18 1 -37 3 -42 3 -4
1 -6 8 -2 16 3 8 2 24 -2 36 l-8 20 -19 -21 c-14 -16 -16 -23 -7 -32 7 -7 12
-30 12 -52 -1 -33 -3 -37 -11 -23 -5 9 -16 17 -23 17 -11 0 -13 -16 -10 -67 2
-38 1 -62 -2 -55 -3 6 -9 10 -14 7 -7 -5 -31 133 -50 300 -6 50 -15 122 -20
160 -6 39 -20 135 -31 214 -11 79 -25 153 -30 164 -19 34 3 38 92 17 46 -11
92 -25 101 -30 26 -15 36 -12 49 11 7 14 7 19 0 15 -12 -8 -83 28 -74 38 3 3
12 1 20 -6 11 -8 17 -8 26 2 10 10 9 12 -5 7 -10 -4 -18 -2 -18 3 0 6 -7 10
-15 10 -8 0 -15 6 -15 14 0 17 -38 66 -51 66 -6 0 -7 -4 -4 -10 4 -6 -9 -10
-31 -10 -35 0 -37 1 -18 15 17 13 17 14 1 15 -9 0 -26 -6 -37 -12 -15 -10 -22
-10 -31 -1 -10 10 -7 15 12 23 19 8 15 9 -26 5 -27 -2 -83 -7 -122 -11 l-73
-6 -1 -32 -2 -31 -6 35 c-5 30 -10 35 -33 35 -16 -1 -28 3 -28 7 0 4 -7 8 -15
8 -9 0 -15 -6 -14 -12 4 -36 -2 -69 -12 -62 -6 4 -9 19 -5 36 7 34 -19 88 -42
88 -10 0 -12 8 -7 29 6 26 3 29 -29 35 -33 6 -35 9 -29 36 5 29 -9 42 -22 20
-3 -5 -25 -10 -48 -10 l-42 0 36 24 c20 14 49 27 65 29 21 3 30 10 32 26 2 15
0 21 -7 17 -6 -4 -11 -2 -11 3 0 6 -6 11 -13 11 -7 0 -17 19 -23 42 -12 54
-41 65 -46 17 -4 -39 -31 -60 -50 -40 -10 11 -10 14 0 18 18 7 15 21 -7 28
-12 4 -18 12 -14 21 3 10 21 14 59 14 72 0 76 25 5 34 -71 9 -80 48 -18 79 20
10 26 16 15 16 -10 1 -18 9 -18 19 0 14 -2 14 -9 3 -8 -12 -12 -12 -25 -2 -8
7 -20 10 -25 7 -5 -4 -12 -2 -16 4 -6 10 24 14 80 10 30 -2 30 -2 11 19 -11
12 -28 21 -39 21 -19 0 -20 9 -2 52 4 11 -1 24 -16 39 -15 15 -24 18 -27 11
-2 -7 -9 -12 -16 -12 -15 0 -18 62 -4 71 6 4 4 16 -4 30 -19 33 -35 49 -42 42
-3 -4 -6 3 -6 15 0 24 -26 28 -67 12z m142 -240 c3 -5 1 -10 -4 -10 -6 0 -11
5 -11 10 0 6 2 10 4 10 3 0 8 -4 11 -10z m-5 -280 c0 -5 -4 -10 -10 -10 -5 0
-10 5 -10 10 0 6 5 10 10 10 6 0 10 -4 10 -10z m75 -60 c-3 -5 -10 -10 -16
-10 -5 0 -9 5 -9 10 0 6 7 10 16 10 8 0 12 -4 9 -10z m65 -10 c0 -5 -4 -10
-10 -10 -5 0 -10 5 -10 10 0 6 5 10 10 10 6 0 10 -4 10 -10z m48 -157 c15 -9
28 -17 29 -18 1 0 0 -11 -4 -23 -6 -25 -23 -30 -23 -7 0 8 -5 15 -11 15 -12 0
-38 29 -39 43 0 12 19 8 48 -10z m-131 -15 c-3 -8 -6 -5 -6 6 -1 11 2 17 5 13
3 -3 4 -12 1 -19z m293 -118 c0 -5 -4 -10 -10 -10 -5 0 -10 5 -10 10 0 6 5 10
10 10 6 0 10 -4 10 -10z m526 -879 c-10 -16 -36 -13 -36 3 0 17 21 27 34 16 4
-5 5 -13 2 -19z"/>
<path d="M247 5874 c7 -3 9 -12 6 -20 -3 -8 0 -14 6 -14 18 0 13 -18 -6 -23
-14 -4 -12 -5 4 -6 20 -1 23 3 20 34 -1 28 -6 35 -22 34 -11 0 -15 -3 -8 -5z"/>
<path d="M310 5845 c0 -34 2 -36 28 -33 23 3 27 8 27 33 0 25 -4 30 -27 33
-26 3 -28 1 -28 -33z m48 3 c-5 -34 -38 -37 -38 -4 0 20 5 26 21 26 15 0 20
-5 17 -22z"/>
<path d="M440 5846 c0 -20 5 -36 11 -36 5 0 7 5 4 10 -3 6 1 10 9 10 9 0 16
-4 16 -10 0 -5 4 -10 8 -10 4 0 8 15 7 33 0 27 -4 32 -27 35 -26 3 -28 1 -28
-32z m40 16 c0 -13 -12 -22 -22 -16 -10 6 -1 24 13 24 5 0 9 -4 9 -8z"/>
<path d="M530 5845 c0 -32 2 -35 28 -34 23 2 24 2 5 6 -13 2 -23 8 -23 13 0 5
10 11 23 13 l22 4 -22 2 c-13 0 -23 5 -23 10 0 5 10 12 23 14 19 4 18 4 -5 6
-26 1 -28 -2 -28 -34z"/>
<path d="M611 5843 c1 -33 2 -35 8 -13 l7 25 15 -22 c20 -33 29 -28 28 15 -1
32 -2 34 -8 12 l-7 -25 -15 23 c-20 32 -29 27 -28 -15z"/>
<path d="M710 5845 c0 -30 3 -35 24 -35 26 0 40 23 31 51 -4 12 -16 19 -31 19
-21 0 -24 -5 -24 -35z m45 0 c0 -11 -8 -21 -17 -23 -14 -3 -18 3 -18 23 0 20
4 26 18 23 9 -2 17 -12 17 -23z"/>
<path d="M800 5845 c0 -32 2 -35 28 -34 23 2 24 2 5 6 -27 5 -30 20 -5 26 16
4 16 5 0 6 -26 2 -22 19 5 24 19 4 18 4 -5 6 -26 1 -28 -2 -28 -34z"/>
<path d="M880 5843 c0 -27 3 -34 9 -24 7 12 13 12 24 3 11 -10 14 -6 15 23 1
31 -2 35 -23 35 -22 0 -25 -4 -25 -37z m38 16 c-2 -6 -8 -10 -13 -10 -5 0 -11
4 -13 10 -2 6 4 11 13 11 9 0 15 -5 13 -11z"/>
<path d="M1007 5855 c-6 -35 3 -48 32 -43 16 2 18 7 11 18 -9 13 -11 13 -19 0
-6 -8 -13 -11 -17 -7 -4 3 4 15 16 25 18 15 20 21 10 27 -9 5 -11 4 -6 -3 4
-7 3 -12 -3 -12 -5 0 -11 6 -14 13 -2 6 -6 -1 -10 -18z"/>
<path d="M1130 5843 c0 -21 4 -33 8 -27 4 6 15 13 25 17 25 9 17 41 -11 45
-19 3 -22 -1 -22 -35z m38 15 c-6 -18 -28 -21 -28 -4 0 9 7 16 16 16 9 0 14
-5 12 -12z"/>
<path d="M1210 5865 c0 -9 7 -18 15 -21 8 -4 15 -11 15 -16 0 -6 -7 -8 -15 -4
-8 3 -15 1 -15 -4 0 -14 37 -12 46 1 4 7 -3 20 -16 29 -22 17 -23 18 -4 23 16
4 16 5 -3 6 -15 1 -23 -5 -23 -14z"/>
<path d="M1288 5844 c4 -29 8 -35 25 -32 11 2 25 10 30 20 14 21 -7 48 -37 48
-19 0 -21 -4 -18 -36z m45 14 c6 -19 -3 -38 -19 -38 -8 0 -14 10 -14 25 0 26
25 35 33 13z"/>
<path d="M1421 5843 c1 -21 3 -30 6 -21 2 9 12 19 21 21 15 4 15 5 0 6 -10 0
-18 5 -18 10 0 5 8 12 18 14 13 4 11 5 -5 6 -20 1 -23 -4 -22 -36z"/>
<path d="M1493 5845 c0 -22 2 -30 4 -17 2 12 2 30 0 40 -3 9 -5 -1 -4 -23z"/>
<path d="M1542 5848 c-2 -34 1 -38 21 -37 15 1 17 3 5 6 -10 2 -18 17 -21 36
-4 31 -4 31 -5 -5z"/>
<path d="M1610 5845 c0 -32 2 -35 28 -34 23 2 24 2 5 6 -27 5 -30 20 -5 26 16
4 16 5 0 6 -26 2 -22 19 5 24 19 4 18 4 -5 6 -26 1 -28 -2 -28 -34z"/>
<path d="M3525 5540 c-4 -6 7 -10 25 -10 18 0 29 4 25 10 -3 6 -15 10 -25 10
-10 0 -22 -4 -25 -10z"/>
<path d="M3660 5404 c0 -8 5 -12 10 -9 6 3 10 10 10 16 0 5 -4 9 -10 9 -5 0
-10 -7 -10 -16z"/>
<path d="M3704 5387 c-9 -24 6 -44 18 -22 7 11 6 21 -1 28 -7 7 -12 6 -17 -6z"/>
<path d="M2673 5343 c-13 -2 -32 -16 -43 -30 -21 -27 -81 -63 -104 -63 -18 0
-66 -56 -66 -77 0 -9 -7 -24 -15 -33 -9 -10 -17 -34 -19 -54 -2 -20 -11 -45
-20 -55 -29 -32 -36 -77 -20 -123 8 -22 14 -53 14 -68 0 -35 28 -70 57 -73 13
0 32 -10 42 -22 11 -11 33 -35 49 -52 19 -21 40 -33 56 -33 22 0 26 -5 26 -27
0 -19 3 -24 9 -15 6 10 10 10 21 -3 7 -8 9 -15 4 -15 -4 0 1 -6 12 -14 12 -9
23 -11 30 -5 6 5 13 6 16 4 3 -3 18 -1 34 6 16 6 55 15 88 19 32 5 66 16 75
24 16 15 35 70 45 136 l6 35 -45 -3 c-28 -3 -45 0 -45 7 0 6 8 11 18 12 15 0
14 2 -3 10 -15 7 -8 8 28 6 26 -1 47 1 47 5 0 5 -5 8 -11 8 -5 0 -8 4 -5 9 6
10 -49 33 -58 24 -3 -3 -17 -3 -31 1 -21 5 -25 13 -27 44 -1 37 -1 37 -5 5 -4
-32 -6 -33 -48 -33 -48 0 -75 -24 -75 -67 0 -26 -2 -27 -52 -13 -21 6 -42 19
-46 28 -10 19 -8 160 2 170 19 19 46 9 65 -23 36 -61 104 -73 144 -25 32 37
43 38 61 1 9 -16 23 -32 33 -35 14 -6 13 -2 -5 17 -24 25 -30 82 -9 90 7 3 5
6 -6 6 -10 1 -20 -6 -23 -14 -9 -22 -31 -18 -37 5 -4 14 -14 20 -35 20 -17 0
-33 4 -36 9 -4 5 3 7 14 4 25 -7 26 3 1 17 -14 7 -23 6 -33 -3 -10 -9 -25 -10
-68 -1 -43 9 -48 12 -23 13 18 1 43 6 56 12 34 15 217 -4 251 -26 27 -18 35
-37 39 -92 2 -35 17 -34 17 2 0 13 5 27 10 30 6 4 7 11 3 18 -4 6 -6 29 -4 50
1 25 -2 36 -9 32 -5 -3 -10 -12 -10 -20 0 -8 -4 -16 -9 -19 -4 -3 -6 6 -3 19
2 15 0 25 -7 25 -6 0 -11 11 -11 24 0 36 -10 55 -26 49 -9 -3 -19 7 -29 31 -8
20 -20 36 -25 36 -6 0 -10 5 -10 11 0 5 5 7 12 3 6 -4 8 -3 5 3 -3 5 -25 16
-49 23 -24 7 -47 17 -53 21 -14 9 -105 18 -132 12z m-56 -275 c-3 -8 -6 -5 -6
6 -1 11 2 17 5 13 3 -3 4 -12 1 -19z m202 -32 c15 -18 -5 -73 -29 -81 -23 -7
-63 12 -55 26 4 5 1 9 -4 9 -15 0 -14 47 2 53 25 11 75 7 86 -7z m-326 -33
c-19 -4 -23 -11 -23 -42 0 -24 8 -49 21 -65 11 -14 16 -26 10 -26 -19 0 -41
45 -41 86 0 47 5 55 34 53 19 -2 19 -2 -1 -6z m33 -180 c3 -16 9 -38 14 -50
16 -39 1 -25 -20 19 -22 47 -24 58 -10 58 5 0 12 -12 16 -27z"/>
<path d="M2754 5016 c-10 -26 0 -51 21 -51 16 0 20 7 20 30 0 33 -30 49 -41
21z"/>
<path d="M3707 5325 c-4 -8 -2 -17 3 -20 6 -4 10 3 10 14 0 25 -6 27 -13 6z"/>
<path d="M3810 5110 c0 -5 5 -10 11 -10 5 0 7 5 4 10 -3 6 -8 10 -11 10 -2 0
-4 -4 -4 -10z"/>
<path d="M2910 5066 c0 -2 9 -6 20 -9 11 -3 18 -1 14 4 -5 9 -34 13 -34 5z"/>
<path d="M2912 4983 c2 -17 10 -29 21 -31 15 -3 18 2 15 25 -2 17 -10 29 -21
31 -15 3 -18 -2 -15 -25z"/>
<path d="M4078 4938 c5 -5 16 -8 23 -6 8 3 3 7 -10 11 -17 4 -21 3 -13 -5z"/>
<path d="M3003 4885 c0 -22 2 -30 4 -17 2 12 2 30 0 40 -3 9 -5 -1 -4 -23z"/>
<path d="M4128 4913 c7 -3 16 -2 19 1 4 3 -2 6 -13 5 -11 0 -14 -3 -6 -6z"/>
<path d="M4311 4834 c0 -11 3 -14 6 -6 3 7 2 16 -1 19 -3 4 -6 -2 -5 -13z"/>
<path d="M4336 4798 c-11 -41 -8 -52 9 -38 16 13 21 60 6 60 -5 0 -11 -10 -15
-22z"/>
<path d="M4336 4658 c3 -40 15 -122 25 -183 11 -60 21 -139 22 -175 l2 -65 84
-3 c53 -2 88 1 95 8 8 9 7 11 -4 9 -8 -1 -27 1 -42 5 -21 6 -28 15 -29 35 l-2
26 -4 -25 c-3 -14 -9 -29 -14 -35 -7 -7 -8 -4 -4 8 5 11 2 17 -8 17 -16 0 -27
29 -27 73 0 21 -4 27 -17 25 -14 -2 -19 5 -21 37 -2 22 -7 44 -11 50 -4 5 -2
26 5 45 10 27 13 30 13 13 1 -13 6 -23 12 -23 7 0 9 8 4 23 -12 32 -9 96 5
123 7 12 10 30 7 38 -13 33 -26 14 -32 -49 -4 -36 -11 -63 -15 -60 -4 2 -5 -8
-3 -23 4 -24 3 -25 -7 -9 -7 10 -9 28 -6 40 3 11 0 27 -5 34 -6 6 -8 17 -4 24
6 8 10 8 16 -2 4 -7 5 7 2 32 -5 40 -16 58 -35 59 -4 0 -4 -33 -2 -72z"/>
<path d="M4430 4541 c0 -12 5 -21 10 -21 6 0 10 6 10 14 0 8 -4 18 -10 21 -5
3 -10 -3 -10 -14z"/>
<path d="M1990 4540 c0 -5 -17 -10 -38 -10 -164 0 -206 -91 -257 -547 l-6 -52
28 14 c16 7 52 15 81 17 l52 3 34 -77 c19 -43 43 -93 55 -113 16 -27 21 -53
21 -105 0 -38 -5 -72 -11 -75 -17 -11 -217 6 -236 20 -15 11 -19 34 -24 127
l-5 113 -2 -130 c-3 -220 21 -354 88 -492 43 -87 81 -126 136 -137 17 -4 36
-17 43 -29 12 -24 11 -217 -1 -217 -5 0 -8 11 -8 24 0 36 -42 91 -72 94 -46 5
-87 -24 -114 -81 -29 -64 -30 -99 -3 -179 29 -84 126 -271 167 -318 23 -27 32
-48 32 -73 0 -35 -1 -36 -47 -42 -115 -14 -240 -38 -264 -51 -34 -17 -39 -32
-39 -105 0 -53 -2 -59 -22 -63 -13 -3 -102 -21 -198 -41 -332 -70 -594 -154
-788 -256 -141 -73 -221 -135 -279 -212 -81 -111 -109 -197 -100 -315 25 -363
464 -635 1293 -801 427 -86 840 -127 1379 -137 1187 -23 2343 191 2848 527
149 99 266 241 303 369 26 88 16 202 -25 285 -65 132 -192 239 -403 340 -106
50 -368 145 -403 145 -11 0 -15 -10 -15 -35 0 -32 -2 -35 -29 -35 -35 0 -61
23 -61 54 0 12 -6 29 -13 38 -22 30 -443 108 -802 149 -228 26 -215 27 -215
-17 0 -35 -1 -35 -37 -32 -34 3 -39 6 -47 39 -9 37 -10 37 -75 45 -76 9 -78 9
-108 0 -14 -5 -23 -3 -23 3 0 6 6 11 13 11 8 0 24 11 37 25 l24 26 -12 182
c-23 354 -62 812 -73 850 -20 74 -104 140 -205 161 l-31 7 -17 -88 c-9 -48
-26 -143 -39 -210 -13 -67 -21 -120 -17 -118 10 6 15 -26 55 -435 19 -195 40
-366 45 -379 l11 -24 -62 7 c-34 3 -92 6 -130 6 -56 0 -68 3 -71 17 -2 10 -20
-75 -42 -187 -95 -507 -155 -785 -173 -797 -20 -16 -43 -16 -77 -3 -21 8 -26
16 -26 43 0 31 82 801 95 890 l5 39 -184 -8 -184 -7 53 219 c74 305 132 535
137 538 1 2 28 7 59 10 l55 7 42 -178 c23 -98 45 -193 48 -211 4 -18 8 -31 10
-30 1 2 14 109 29 238 41 372 76 674 79 685 2 6 -22 17 -53 26 -52 14 -56 18
-59 47 -4 35 -37 65 -69 62 -35 -4 -718 3 -693 7 77 11 90 15 90 23 0 12 -160
13 -179 1 -11 -7 -9 -10 9 -16 23 -7 23 -8 -7 -20 -39 -16 -84 -85 -176 -265
-37 -74 -71 -137 -74 -140 -7 -6 5 322 13 373 5 30 3 37 -10 37 -13 0 -16 12
-16 71 l0 71 97 92 c70 66 104 91 122 91 43 0 104 32 97 51 -3 8 -6 18 -6 20
0 2 -14 4 -31 4 -20 0 -29 4 -26 13 2 8 18 11 45 9 l41 -4 -11 39 c-13 51 -23
59 -23 20 0 -20 -5 -33 -15 -35 -12 -2 -15 5 -12 36 3 33 -1 42 -28 65 -26 23
-35 25 -53 16 -12 -6 -30 -21 -39 -33 -13 -16 -20 -18 -29 -9 -6 6 -18 9 -26
6 -12 -5 -11 -9 2 -29 14 -22 14 -27 1 -45 -14 -20 -14 -20 -32 10 -10 16 -21
28 -26 25 -4 -3 -8 0 -8 5 0 16 80 95 121 119 49 30 72 28 114 -9 43 -38 47
-19 5 23 -26 26 -37 29 -71 26 -35 -3 -38 -2 -23 9 10 7 23 13 28 14 6 0 24
16 39 34 27 33 27 34 6 40 -12 4 -29 14 -39 23 -21 17 -126 62 -147 62 -7 0
-15 -12 -18 -27 -9 -44 -39 -133 -43 -129 -2 2 4 32 13 66 9 34 19 91 24 126
6 52 5 64 -7 64 -8 0 -12 6 -9 13 3 8 -5 14 -24 15 -16 1 -29 -2 -29 -8z m-80
-354 c0 -11 -19 -15 -25 -6 -3 5 1 10 9 10 9 0 16 -2 16 -4z m25 -16 c3 -5 1
-10 -4 -10 -6 0 -11 5 -11 10 0 6 2 10 4 10 3 0 8 -4 11 -10z m25 -55 c0 -5
-5 -3 -10 5 -5 8 -10 20 -10 25 0 6 5 3 10 -5 5 -8 10 -19 10 -25z m7 -67 c-3
-8 -6 -5 -6 6 -1 11 2 17 5 13 3 -3 4 -12 1 -19z m86 -3 c-3 -9 -8 -14 -10
-11 -3 3 -2 9 2 15 9 16 15 13 8 -4z m-2 -139 c-20 -41 -39 -75 -43 -75 -5 -1
-8 33 -8 74 l0 75 43 0 43 0 -35 -74z m179 -738 c-33 -152 -34 -167 -13 -108
5 13 42 -116 43 -146 0 -6 -28 -63 -63 -125 -34 -63 -82 -158 -107 -212 l-45
-98 -6 158 c-4 87 -7 219 -8 294 l-1 136 108 109 c59 60 108 106 110 102 2 -4
-6 -54 -18 -110z m124 -636 c32 -138 37 -298 9 -288 -39 15 -105 26 -205 32
l-106 7 -4 48 c-1 27 -1 49 2 49 9 0 195 190 232 236 18 23 36 39 39 35 4 -3
19 -57 33 -119z m1339 -379 c-13 -2 -33 -2 -45 0 -13 2 -3 4 22 4 25 0 35 -2
23 -4z m-1225 -104 c-20 -6 -21 -7 -3 -9 11 -1 38 -2 60 -2 l40 1 -39 -8 c-21
-5 -46 -7 -55 -5 -63 12 -71 16 -71 32 0 17 4 17 46 8 39 -9 42 -12 22 -17z
m171 -10 c-8 -5 -27 -8 -44 -8 l-30 1 30 8 30 7 -30 5 c-23 4 -21 5 8 3 22 -2
37 1 38 8 0 7 3 6 6 -2 3 -7 -1 -17 -8 -22z m1293 5 c74 -19 91 -29 31 -19
-54 8 -140 -16 -182 -51 -24 -20 -31 -22 -31 -10 0 8 14 22 30 31 17 9 30 18
30 20 0 9 -35 -8 -68 -32 -18 -14 -35 -23 -38 -21 -9 9 45 50 92 69 42 17 44
18 14 13 -39 -7 -106 -38 -132 -62 -10 -8 -18 -11 -18 -5 0 30 105 82 167 83
23 0 70 -7 105 -16z m-1190 -149 c40 -14 77 -30 83 -36 5 -5 -10 -3 -34 6 -79
27 -173 13 -252 -39 -52 -35 -62 -32 -19 4 19 17 31 30 26 30 -10 0 -69 -41
-78 -54 -4 -6 -10 -7 -14 -4 -12 13 48 57 104 77 32 11 50 20 41 20 -26 1
-100 -27 -141 -55 -46 -30 -51 -15 -6 18 44 31 124 57 176 58 23 0 75 -11 114
-25z"/>
<path d="M2192 2985 c0 -16 2 -22 5 -12 2 9 2 23 0 30 -3 6 -5 -1 -5 -18z"/>
<path d="M2171 2884 c0 -11 3 -14 6 -6 3 7 2 16 -1 19 -3 4 -6 -2 -5 -13z"/>
<path d="M2080 4475 c0 -39 -1 -39 34 -26 22 9 23 12 13 35 -18 40 -47 34 -47
-9z"/>
<path d="M2631 4492 c0 -8 -8 -11 -20 -7 -12 3 -33 -4 -55 -19 -20 -13 -50
-27 -66 -31 -17 -4 -28 -11 -25 -16 4 -5 -2 -6 -11 -2 -13 5 -15 3 -9 -7 5 -9
4 -11 -4 -6 -6 4 -21 4 -32 1 -14 -5 -18 -10 -10 -14 7 -4 -2 -8 -19 -8 -34 0
-50 -10 -32 -21 6 -5 13 -18 15 -31 2 -13 11 -29 20 -36 12 -9 17 -27 17 -61
0 -40 -4 -52 -22 -64 -13 -8 -26 -13 -30 -12 -4 1 0 -17 8 -39 7 -23 14 -49
14 -58 1 -9 8 -25 18 -36 17 -20 19 -20 207 -5 152 12 179 16 135 21 -30 3
-45 6 -34 7 25 2 58 47 50 67 -3 8 0 16 7 19 9 3 9 5 0 5 -22 2 -14 19 10 24
17 3 15 5 -9 6 -24 1 -35 9 -52 40 -25 44 -43 62 -69 65 -10 1 -29 19 -42 39
-13 20 -30 37 -38 37 -23 0 -14 17 17 30 29 12 57 11 170 -6 42 -6 44 -5 24 9
-11 9 -32 19 -46 22 -35 9 -75 46 -81 75 -2 14 -5 19 -6 12z"/>
<path d="M2160 4475 c0 -8 2 -15 4 -15 2 0 6 7 10 15 3 8 1 15 -4 15 -6 0 -10
-7 -10 -15z"/>
<path d="M2240 4456 c0 -3 9 -10 20 -16 11 -6 20 -8 20 -6 0 3 -9 10 -20 16
-11 6 -20 8 -20 6z"/>
<path d="M2870 4445 c7 -8 16 -12 21 -9 13 8 1 24 -18 24 -13 0 -13 -3 -3 -15z"/>
<path d="M4410 4400 c0 -5 5 -10 11 -10 5 0 7 5 4 10 -3 6 -8 10 -11 10 -2 0
-4 -4 -4 -10z"/>
<path d="M4212 4255 c0 -16 2 -22 5 -12 2 9 2 23 0 30 -3 6 -5 -1 -5 -18z"/>
<path d="M3086 4219 c-3 -17 -6 -60 -6 -95 0 -54 -3 -64 -17 -65 -10 -1 33 -5
96 -10 119 -8 141 -2 141 34 0 9 6 18 13 20 9 4 9 6 -1 6 -12 1 -125 76 -175
118 -37 30 -43 29 -51 -8z"/>
<path d="M3370 4120 c20 -13 33 -13 25 0 -3 6 -14 10 -23 10 -15 0 -15 -2 -2
-10z"/>
<path d="M3881 4044 c-1 -24 -19 -34 -58 -34 -53 0 -16 -8 70 -15 77 -6 86 -5
81 9 -4 11 -19 16 -44 16 -32 0 -39 4 -43 23 -4 21 -4 21 -6 1z"/>
<path d="M3150 3600 c-42 -6 -40 -7 27 -8 66 -2 72 -4 76 -24 4 -16 5 -13 4 7
-2 26 -6 30 -32 31 -16 1 -50 -2 -75 -6z"/>
<path d="M3578 3603 c7 -3 16 -2 19 1 4 3 -2 6 -13 5 -11 0 -14 -3 -6 -6z"/>
<path d="M4460 379 c-69 -28 -110 -107 -90 -176 13 -48 26 -65 70 -92 35 -21
39 -21 735 -21 647 0 703 1 735 18 107 53 107 211 0 264 -32 17 -88 18 -730
17 -436 0 -704 -4 -720 -10z m1451 -26 c16 -10 39 -37 51 -61 18 -38 19 -49 9
-82 -15 -51 -39 -78 -81 -93 -27 -9 -202 -11 -732 -7 -687 5 -697 5 -725 26
-15 11 -35 40 -43 62 -13 37 -13 47 0 84 10 27 27 50 49 65 l34 23 704 0 c650
0 707 -1 734 -17z"/>
<path d="M4550 241 c0 -35 3 -39 30 -43 17 -3 30 -1 30 4 0 4 -9 8 -20 8 -11
0 -20 5 -20 10 0 6 9 10 20 10 11 0 20 5 20 10 0 6 -9 10 -20 10 -11 0 -20 4
-20 9 0 5 9 7 20 4 11 -3 20 0 20 6 0 6 -13 11 -30 11 -28 0 -30 -2 -30 -39z"/>
<path d="M4642 238 c3 -44 15 -52 56 -37 14 5 22 17 22 32 0 31 -18 47 -53 47
-27 0 -28 -2 -25 -42z m56 -2 c-4 -31 -38 -34 -38 -3 0 29 7 37 27 30 8 -3 13
-15 11 -27z"/>
<path d="M4750 241 c0 -22 5 -43 10 -46 6 -4 10 12 10 39 0 25 -4 46 -10 46
-5 0 -10 -18 -10 -39z"/>
<path d="M4808 273 c6 -2 12 -20 12 -38 0 -19 5 -37 10 -40 6 -4 10 8 10 29 0
23 6 39 18 45 13 8 9 10 -23 10 -22 0 -34 -3 -27 -6z"/>
<path d="M4896 240 c-19 -48 -20 -58 -4 -42 15 15 58 16 58 1 0 -5 4 -7 10 -4
11 7 -25 85 -39 85 -5 0 -16 -18 -25 -40z m34 0 c0 -5 -5 -10 -11 -10 -5 0 -7
5 -4 10 3 6 8 10 11 10 2 0 4 -4 4 -10z"/>
<path d="M4990 241 c0 -45 10 -56 45 -47 20 5 24 11 22 44 -3 34 -6 37 -35 40
-31 3 -32 2 -32 -37z m45 19 c3 -5 -1 -10 -10 -10 -9 0 -13 5 -10 10 3 6 8 10
10 10 2 0 7 -4 10 -10z m5 -40 c0 -5 -7 -10 -15 -10 -8 0 -15 5 -15 10 0 6 7
10 15 10 8 0 15 -4 15 -10z"/>
<path d="M5092 238 c3 -35 7 -42 26 -43 13 -1 25 2 28 7 3 4 -4 8 -15 8 -17 0
-21 6 -21 35 0 19 -5 35 -11 35 -6 0 -9 -17 -7 -42z"/>
<path d="M5180 235 c0 -43 1 -45 30 -45 17 0 30 5 30 10 0 6 -11 10 -25 10
-14 0 -25 5 -25 10 0 6 9 10 20 10 11 0 20 5 20 10 0 6 -10 10 -22 10 -25 0
-14 15 17 23 13 3 9 5 -12 6 -33 1 -33 0 -33 -44z"/>
<path d="M5322 268 c-7 -7 -12 -20 -12 -30 0 -22 42 -50 64 -42 26 10 19 25
-9 18 -18 -4 -27 -1 -31 10 -9 23 15 48 39 40 13 -4 17 -2 13 5 -9 15 -49 14
-64 -1z"/>
<path d="M5421 258 c-10 -28 -4 -45 19 -58 38 -20 80 22 60 60 -16 29 -68 27
-79 -2z m59 -4 c11 -12 10 -18 -3 -32 -16 -15 -18 -15 -34 0 -13 14 -14 20 -3
32 7 9 16 16 20 16 4 0 13 -7 20 -16z"/>
<path d="M5542 239 c-2 -45 -2 -46 26 -40 24 5 25 6 5 9 -17 2 -23 11 -26 40
-3 34 -4 34 -5 -9z"/>
<path d="M5622 268 c-33 -33 16 -91 57 -68 39 20 21 80 -24 80 -12 0 -26 -5
-33 -12z m53 -29 c0 -15 -7 -25 -18 -27 -22 -4 -33 24 -17 43 18 21 35 13 35
-16z"/>
<path d="M5730 241 c0 -22 5 -43 10 -46 6 -3 10 1 10 9 0 20 9 20 30 1 16 -14
17 -12 16 27 -1 41 -3 43 -33 46 -32 3 -33 2 -33 -37z m50 8 c0 -5 -7 -9 -15
-9 -15 0 -20 12 -9 23 8 8 24 -1 24 -14z"/>
</g>
</svg>
